<svg xmlns="http://www.w3.org/2000/svg" xmlns:xlink="http://www.w3.org/1999/xlink" width="100" zoomAndPan="magnify" viewBox="0 0 75 74.999997" height="100" preserveAspectRatio="xMidYMid meet" version="1.0"><defs><clipPath id="id1"><path d="M 0.890625 0.132812 L 8.050781 0.132812 L 8.050781 74.824219 L 0.890625 74.824219 Z M 0.890625 0.132812 " clip-rule="nonzero"/></clipPath><clipPath id="id2"><path d="M 22.375 0.132812 L 29.539062 0.132812 L 29.539062 74.824219 L 22.375 74.824219 Z M 22.375 0.132812 " clip-rule="nonzero"/></clipPath><clipPath id="id3"><path d="M 38 6.375 L 74.363281 6.375 L 74.363281 74.824219 L 38 74.824219 Z M 38 6.375 " clip-rule="nonzero"/></clipPath></defs><g clip-path="url(#id1)"><path fill="#ffffff" d="M 4.472656 0.132812 C 6.449219 0.132812 8.050781 1.726562 8.050781 3.699219 L 8.050781 71.253906 C 8.050781 73.222656 6.449219 74.824219 4.472656 74.824219 C 2.496094 74.824219 0.890625 73.222656 0.890625 71.253906 L 0.890625 3.699219 C 0.890625 1.726562 2.496094 0.132812 4.472656 0.132812 " fill-opacity="1" fill-rule="nonzero"/></g><g clip-path="url(#id2)"><path fill="#ffffff" d="M 25.957031 0.132812 C 27.9375 0.132812 29.539062 1.726562 29.539062 3.699219 L 29.539062 71.253906 C 29.539062 73.222656 27.9375 74.824219 25.957031 74.824219 C 23.976562 74.824219 22.375 73.222656 22.375 71.253906 L 22.375 3.699219 C 22.375 1.726562 23.976562 0.132812 25.957031 0.132812 " fill-opacity="1" fill-rule="nonzero"/></g><g clip-path="url(#id3)"><path fill="#ffffff" d="M 40.492188 6.847656 C 42.28125 6.011719 44.414062 6.78125 45.253906 8.566406 L 74.023438 69.738281 C 74.863281 71.523438 74.089844 73.648438 72.300781 74.484375 C 70.511719 75.320312 68.378906 74.550781 67.542969 72.765625 L 38.765625 11.59375 C 37.929688 9.808594 38.699219 7.683594 40.492188 6.847656 " fill-opacity="1" fill-rule="nonzero"/></g></svg>