<svg xmlns="http://www.w3.org/2000/svg" xmlns:xlink="http://www.w3.org/1999/xlink" width="100" zoomAndPan="magnify" viewBox="0 0 75 74.999997" height="100" preserveAspectRatio="xMidYMid meet" version="1.0"><defs><clipPath id="id1"><path d="M 0 4.265625 L 75 4.265625 L 75 71 L 0 71 Z M 0 4.265625 " clip-rule="nonzero"/></clipPath></defs><g clip-path="url(#id1)"><path fill="#1db954" d="M 37.5 71 L 36.703125 70.457031 C 36.613281 70.394531 27.480469 64.128906 18.480469 55.46875 C 13.171875 50.347656 8.925781 45.40625 5.863281 40.765625 C 1.980469 34.832031 0 29.332031 0 24.453125 C 0 13.335938 9.015625 4.28125 20.085938 4.28125 C 24.195312 4.28125 28.171875 5.546875 31.558594 7.957031 C 34.019531 9.707031 36.03125 11.933594 37.5 14.496094 C 38.96875 11.917969 40.980469 9.691406 43.441406 7.957031 C 46.828125 5.546875 50.804688 4.28125 54.914062 4.28125 C 65.984375 4.28125 75 13.335938 75 24.453125 L 75 24.46875 C 74.953125 29.316406 72.960938 34.769531 69.058594 40.691406 C 66 45.332031 61.769531 50.269531 56.460938 55.40625 C 47.476562 64.097656 38.386719 70.394531 38.296875 70.457031 Z M 20.085938 7.097656 C 10.558594 7.097656 2.804688 14.886719 2.804688 24.453125 C 2.804688 28.777344 4.621094 33.730469 8.203125 39.183594 C 11.128906 43.644531 15.238281 48.433594 20.398438 53.40625 C 27.703125 60.4375 35.113281 65.878906 37.5 67.5625 C 39.886719 65.863281 47.25 60.394531 54.539062 53.34375 C 59.683594 48.359375 63.78125 43.582031 66.71875 39.125 C 70.304688 33.671875 72.148438 28.746094 72.179688 24.453125 C 72.179688 14.886719 64.425781 7.113281 54.898438 7.113281 C 47.835938 7.113281 41.371094 11.601562 38.789062 18.292969 L 37.484375 21.695312 L 36.195312 18.292969 C 33.613281 11.601562 27.148438 7.097656 20.085938 7.097656 Z M 20.085938 7.097656 " fill-opacity="1" fill-rule="nonzero"/></g></svg>