<svg xmlns="http://www.w3.org/2000/svg" xmlns:xlink="http://www.w3.org/1999/xlink" width="100" zoomAndPan="magnify" viewBox="0 0 75 74.999997" height="100" preserveAspectRatio="xMidYMid meet" version="1.0"><defs><clipPath id="id1"><path d="M 1 3.421875 L 74 3.421875 L 74 37 L 1 37 Z M 1 3.421875 " clip-rule="nonzero"/></clipPath><clipPath id="id2"><path d="M 9 20 L 67 20 L 67 71.671875 L 9 71.671875 Z M 9 20 " clip-rule="nonzero"/></clipPath></defs><g clip-path="url(#id1)"><path fill="#ffffff" d="M 71.851562 27.394531 L 60.308594 18.890625 L 60.308594 8.746094 C 60.308594 7.15625 59.019531 5.871094 57.433594 5.871094 L 52.761719 5.871094 C 51.175781 5.871094 49.886719 7.160156 49.886719 8.746094 L 49.886719 11.210938 L 41.085938 4.726562 C 39.175781 3.316406 36.050781 3.316406 34.140625 4.726562 L 3.371094 27.394531 C 1.460938 28.800781 1.050781 31.519531 2.457031 33.433594 L 3.308594 34.589844 C 4.710938 36.503906 7.425781 36.917969 9.332031 35.511719 L 34.140625 17.230469 C 36.050781 15.820312 39.175781 15.820312 41.085938 17.230469 L 65.890625 35.511719 C 67.800781 36.917969 70.511719 36.5 71.914062 34.589844 L 72.769531 33.433594 C 74.171875 31.519531 73.761719 28.800781 71.851562 27.394531 Z M 71.851562 27.394531 " fill-opacity="1" fill-rule="nonzero"/></g><g clip-path="url(#id2)"><path fill="#ffffff" d="M 62.648438 37.101562 L 41.078125 21.136719 C 39.171875 19.726562 36.054688 19.726562 34.144531 21.136719 L 12.578125 37.101562 C 10.667969 38.511719 9.109375 40.578125 9.109375 41.699219 L 9.109375 64.84375 C 9.109375 68.597656 12.324219 71.648438 16.296875 71.648438 L 29.46875 71.648438 L 29.46875 51.175781 C 29.46875 49.59375 30.761719 48.300781 32.339844 48.300781 L 42.878906 48.300781 C 44.460938 48.300781 45.753906 49.59375 45.753906 51.175781 L 45.753906 71.648438 L 58.925781 71.648438 C 62.894531 71.648438 66.109375 68.597656 66.109375 64.84375 L 66.109375 41.699219 C 66.113281 40.578125 64.554688 38.511719 62.648438 37.101562 Z M 62.648438 37.101562 " fill-opacity="1" fill-rule="nonzero"/></g></svg>