<svg xmlns="http://www.w3.org/2000/svg" xmlns:xlink="http://www.w3.org/1999/xlink" width="100" zoomAndPan="magnify" viewBox="0 0 75 74.999997" height="100" preserveAspectRatio="xMidYMid meet" version="1.0"><path fill="#ffffff" d="M 30.976562 59.890625 C 30.390625 59.890625 29.804688 59.871094 29.21875 59.835938 C 28.636719 59.800781 28.050781 59.746094 27.472656 59.675781 C 26.890625 59.605469 26.3125 59.515625 25.734375 59.410156 C 25.160156 59.300781 24.585938 59.175781 24.019531 59.035156 C 23.449219 58.894531 22.886719 58.734375 22.328125 58.558594 C 21.769531 58.378906 21.21875 58.1875 20.671875 57.976562 C 20.125 57.765625 19.585938 57.539062 19.054688 57.292969 C 18.519531 57.050781 17.996094 56.792969 17.480469 56.515625 C 16.964844 56.238281 16.457031 55.949219 15.957031 55.640625 C 15.457031 55.332031 14.96875 55.011719 14.492188 54.675781 C 14.011719 54.335938 13.542969 53.984375 13.085938 53.621094 C 12.628906 53.253906 12.183594 52.875 11.75 52.480469 C 11.316406 52.089844 10.894531 51.683594 10.484375 51.261719 C 10.074219 50.84375 9.679688 50.414062 9.296875 49.96875 C 8.914062 49.527344 8.546875 49.070312 8.191406 48.605469 C 7.835938 48.140625 7.496094 47.664062 7.171875 47.175781 C 6.84375 46.6875 6.535156 46.191406 6.238281 45.6875 C 5.945312 45.179688 5.664062 44.667969 5.402344 44.144531 C 5.140625 43.621094 4.890625 43.089844 4.660156 42.550781 C 4.429688 42.011719 4.214844 41.46875 4.019531 40.917969 C 3.820312 40.367188 3.640625 39.808594 3.476562 39.246094 C 3.316406 38.683594 3.167969 38.117188 3.039062 37.546875 C 2.914062 36.972656 2.800781 36.398438 2.707031 35.820312 C 2.617188 35.242188 2.539062 34.660156 2.484375 34.078125 C 2.425781 33.496094 2.386719 32.914062 2.363281 32.328125 C 2.34375 31.742188 2.339844 31.15625 2.351562 30.570312 C 2.367188 29.984375 2.398438 29.402344 2.449219 28.816406 C 2.5 28.234375 2.570312 27.652344 2.65625 27.074219 C 2.742188 26.492188 2.84375 25.917969 2.964844 25.34375 C 3.085938 24.773438 3.226562 24.203125 3.382812 23.640625 C 3.539062 23.074219 3.710938 22.515625 3.902344 21.960938 C 4.09375 21.40625 4.300781 20.859375 4.523438 20.320312 C 4.75 19.777344 4.988281 19.246094 5.246094 18.71875 C 5.503906 18.191406 5.777344 17.675781 6.066406 17.164062 C 6.351562 16.65625 6.65625 16.15625 6.976562 15.664062 C 7.296875 15.171875 7.628906 14.691406 7.980469 14.222656 C 8.328125 13.75 8.691406 13.292969 9.070312 12.84375 C 9.445312 12.398438 9.835938 11.960938 10.242188 11.535156 C 10.644531 11.113281 11.0625 10.703125 11.492188 10.300781 C 11.917969 9.902344 12.359375 9.519531 12.8125 9.148438 C 13.265625 8.777344 13.730469 8.417969 14.203125 8.078125 C 14.679688 7.734375 15.164062 7.40625 15.660156 7.09375 C 16.152344 6.777344 16.65625 6.480469 17.171875 6.199219 C 17.683594 5.917969 18.207031 5.652344 18.734375 5.402344 C 19.265625 5.148438 19.800781 4.917969 20.34375 4.699219 C 20.890625 4.480469 21.4375 4.28125 21.996094 4.097656 C 22.550781 3.914062 23.113281 3.75 23.679688 3.597656 C 24.246094 3.449219 24.816406 3.320312 25.390625 3.203125 C 25.964844 3.089844 26.542969 2.996094 27.121094 2.914062 C 27.703125 2.835938 28.285156 2.777344 28.871094 2.734375 C 29.453125 2.691406 30.039062 2.667969 30.625 2.660156 C 31.210938 2.652344 31.792969 2.664062 32.378906 2.691406 C 32.964844 2.722656 33.546875 2.769531 34.128906 2.832031 C 34.710938 2.898438 35.292969 2.980469 35.867188 3.082031 C 36.445312 3.179688 37.019531 3.300781 37.589844 3.433594 C 38.160156 3.570312 38.722656 3.722656 39.285156 3.894531 C 39.84375 4.066406 40.398438 4.25 40.949219 4.457031 C 41.496094 4.660156 42.039062 4.882812 42.574219 5.121094 C 43.109375 5.355469 43.636719 5.609375 44.15625 5.882812 C 44.675781 6.152344 45.1875 6.4375 45.6875 6.738281 C 46.191406 7.039062 46.683594 7.355469 47.167969 7.6875 C 47.648438 8.019531 48.121094 8.367188 48.582031 8.726562 C 49.042969 9.085938 49.492188 9.460938 49.933594 9.847656 C 50.371094 10.238281 50.796875 10.640625 51.210938 11.054688 C 52.207031 12.046875 53.125 13.109375 53.960938 14.238281 C 54.800781 15.371094 55.554688 16.554688 56.21875 17.796875 C 56.882812 19.039062 57.449219 20.320312 57.925781 21.644531 C 58.398438 22.96875 58.773438 24.324219 59.050781 25.703125 C 59.324219 27.082031 59.496094 28.476562 59.566406 29.882812 C 59.632812 31.289062 59.601562 32.691406 59.460938 34.089844 C 59.324219 35.492188 59.085938 36.875 58.742188 38.238281 C 58.402344 39.605469 57.960938 40.9375 57.421875 42.238281 C 56.882812 43.539062 56.25 44.792969 55.527344 46 C 54.804688 47.207031 53.996094 48.351562 53.101562 49.441406 C 52.210938 50.527344 51.242188 51.542969 50.199219 52.488281 C 49.15625 53.433594 48.046875 54.296875 46.878906 55.078125 C 45.707031 55.859375 44.484375 56.550781 43.210938 57.152344 C 41.941406 57.753906 40.628906 58.257812 39.28125 58.664062 C 37.9375 59.070312 36.566406 59.378906 35.175781 59.582031 C 33.78125 59.789062 32.382812 59.890625 30.976562 59.890625 Z M 30.976562 8.960938 C 30.121094 8.960938 29.269531 9.007812 28.421875 9.101562 C 27.574219 9.199219 26.734375 9.34375 25.902344 9.535156 C 25.070312 9.726562 24.25 9.964844 23.445312 10.253906 C 22.640625 10.539062 21.855469 10.867188 21.089844 11.246094 C 20.324219 11.621094 19.582031 12.039062 18.863281 12.5 C 18.144531 12.960938 17.453125 13.464844 16.792969 14.003906 C 16.132812 14.542969 15.503906 15.121094 14.910156 15.734375 C 14.3125 16.347656 13.757812 16.992188 13.234375 17.667969 C 12.714844 18.34375 12.234375 19.046875 11.792969 19.777344 C 11.351562 20.511719 10.957031 21.265625 10.601562 22.042969 C 10.25 22.820312 9.941406 23.613281 9.679688 24.425781 C 9.414062 25.238281 9.199219 26.0625 9.03125 26.902344 C 8.867188 27.738281 8.746094 28.582031 8.675781 29.433594 C 8.605469 30.285156 8.582031 31.136719 8.609375 31.988281 C 8.636719 32.84375 8.710938 33.691406 8.835938 34.539062 C 8.960938 35.382812 9.132812 36.21875 9.351562 37.042969 C 9.570312 37.867188 9.839844 38.675781 10.152344 39.472656 C 10.464844 40.265625 10.820312 41.039062 11.222656 41.792969 C 11.625 42.546875 12.066406 43.273438 12.554688 43.976562 C 13.039062 44.679688 13.5625 45.351562 14.125 45.996094 C 14.6875 46.636719 15.285156 47.246094 15.917969 47.820312 C 16.546875 48.394531 17.210938 48.929688 17.90625 49.425781 C 18.597656 49.925781 19.320312 50.382812 20.066406 50.796875 C 20.8125 51.210938 21.578125 51.582031 22.367188 51.910156 C 23.15625 52.238281 23.960938 52.519531 24.78125 52.753906 C 25.601562 52.988281 26.433594 53.175781 27.277344 53.316406 C 28.117188 53.457031 28.964844 53.546875 29.820312 53.589844 C 30.671875 53.632812 31.523438 53.625 32.375 53.570312 C 33.226562 53.511719 34.074219 53.410156 34.914062 53.257812 C 35.753906 53.105469 36.582031 52.90625 37.398438 52.65625 C 38.21875 52.410156 39.015625 52.117188 39.800781 51.777344 C 40.585938 51.4375 41.347656 51.054688 42.085938 50.625 C 42.824219 50.199219 43.539062 49.730469 44.222656 49.222656 C 44.910156 48.714844 45.5625 48.167969 46.1875 47.585938 C 46.808594 47 47.398438 46.382812 47.949219 45.734375 C 48.503906 45.082031 49.015625 44.402344 49.492188 43.691406 C 49.964844 42.980469 50.398438 42.246094 50.785156 41.488281 C 51.175781 40.726562 51.523438 39.949219 51.824219 39.148438 C 52.125 38.351562 52.378906 37.535156 52.585938 36.707031 C 52.792969 35.878906 52.949219 35.042969 53.0625 34.195312 C 53.171875 33.347656 53.234375 32.5 53.25 31.644531 C 53.261719 30.789062 53.226562 29.9375 53.144531 29.089844 C 53.058594 28.238281 52.925781 27.398438 52.746094 26.5625 C 52.566406 25.730469 52.335938 24.90625 52.0625 24.097656 C 51.789062 23.289062 51.46875 22.5 51.101562 21.730469 C 50.734375 20.957031 50.328125 20.210938 49.875 19.484375 C 49.425781 18.757812 48.933594 18.0625 48.402344 17.394531 C 47.871094 16.726562 47.300781 16.089844 46.699219 15.488281 C 45.664062 14.453125 44.542969 13.53125 43.328125 12.71875 C 42.113281 11.910156 40.832031 11.222656 39.484375 10.664062 C 38.136719 10.101562 36.746094 9.679688 35.3125 9.394531 C 33.882812 9.109375 32.433594 8.964844 30.976562 8.960938 Z M 30.976562 8.960938 " fill-opacity="1" fill-rule="nonzero"/><path fill="#ffffff" d="M 71.539062 75 C 70.675781 74.996094 69.933594 74.6875 69.324219 74.074219 L 46.761719 51.523438 C 46.464844 51.230469 46.238281 50.890625 46.078125 50.503906 C 45.917969 50.117188 45.839844 49.71875 45.839844 49.300781 C 45.839844 48.882812 45.917969 48.480469 46.078125 48.097656 C 46.238281 47.710938 46.464844 47.371094 46.761719 47.074219 C 47.054688 46.78125 47.394531 46.554688 47.78125 46.394531 C 48.167969 46.234375 48.570312 46.152344 48.984375 46.152344 C 49.402344 46.152344 49.804688 46.234375 50.191406 46.394531 C 50.574219 46.554688 50.914062 46.78125 51.210938 47.074219 L 73.757812 69.636719 C 74.203125 70.089844 74.488281 70.625 74.613281 71.246094 C 74.734375 71.867188 74.675781 72.472656 74.433594 73.058594 C 74.191406 73.644531 73.808594 74.113281 73.28125 74.464844 C 72.753906 74.820312 72.175781 74.996094 71.539062 75 Z M 71.539062 75 " fill-opacity="1" fill-rule="nonzero"/></svg>